<?xml version="1.0" standalone="no"?>
<!DOCTYPE svg PUBLIC "-//W3C//DTD SVG 20010904//EN"
 "http://www.w3.org/TR/2001/REC-SVG-20010904/DTD/svg10.dtd">
<svg version="1.0" xmlns="http://www.w3.org/2000/svg"
 width="882.000000pt" height="882.000000pt" viewBox="0 0 882.000000 882.000000"
 preserveAspectRatio="xMidYMid meet">
<metadata>
Created by potrace 1.14, written by Peter Selinger 2001-2017
</metadata>
<g transform="translate(0.000000,882.000000) scale(0.100000,-0.100000)"
fill="#000000" stroke="none">
<path d="M0 4405 l0 -4395 4405 0 4405 0 0 4395 0 4395 -4405 0 -4405 0 0
-4395z m2542 343 l3 -1673 723 -3 722 -2 0 -350 0 -350 -1080 0 -1080 0 0
2025 0 2025 355 0 355 0 2 -1672z m3458 1657 c123 -19 219 -46 313 -89 328
-149 561 -467 646 -881 49 -237 49 -535 1 -770 -115 -558 -478 -910 -1005
-974 -49 -6 -246 -11 -437 -11 l-348 0 0 -655 0 -655 -355 0 -355 0 0 2025 0
2025 723 0 c583 0 740 -3 817 -15z"/>
<path d="M5170 5046 l0 -676 298 0 c336 0 379 6 496 68 97 51 165 122 215 224
59 121 73 182 78 350 6 164 -8 257 -53 368 -61 150 -180 261 -334 312 -60 20
-91 22 -382 26 l-318 4 0 -676z"/>
</g>
</svg>
